<svg xmlns="http://www.w3.org/2000/svg" width="1968" height="371" viewBox="0 0 1968 371" role="img" aria-label="FreelanceFlow freelanceflow horizontal color logo">
  <title>FreelanceFlow freelanceflow horizontal color logo</title>
  <g fill-rule="evenodd" clip-rule="evenodd">
    <path fill="#0F172A" d="M264.0,234.0 L264.0,255.0 L319.0,255.0 L319.0,234.0 Z M1018.0,194.0 L1032.0,194.0 L1044.0,199.0 L1053.0,208.0 L1058.0,220.0 L1058.0,235.0 L1054.0,246.0 L1045.0,256.0 L1032.0,262.0 L1018.0,262.0 L1007.0,258.0 L996.0,247.0 L991.0,235.0 L991.0,221.0 L996.0,209.0 L1003.0,201.0 Z M1372.0,213.0 L1376.0,205.0 L1386.0,196.0 L1397.0,192.0 L1408.0,192.0 L1422.0,198.0 L1429.0,205.0 L1433.0,216.0 L1431.0,218.0 L1373.0,218.0 Z M813.0,213.0 L817.0,205.0 L829.0,195.0 L839.0,192.0 L849.0,192.0 L863.0,198.0 L872.0,208.0 L874.0,216.0 L870.0,218.0 L814.0,218.0 Z M683.0,213.0 L688.0,204.0 L697.0,196.0 L708.0,192.0 L718.0,192.0 L732.0,197.0 L742.0,208.0 L744.0,216.0 L742.0,218.0 L685.0,218.0 Z M264.0,184.0 L264.0,205.0 L319.0,204.0 L319.0,184.0 Z M1378.0,174.0 L1365.0,182.0 L1356.0,191.0 L1348.0,206.0 L1344.0,231.0 L1350.0,255.0 L1363.0,272.0 L1380.0,282.0 L1390.0,285.0 L1413.0,286.0 L1429.0,282.0 L1439.0,277.0 L1452.0,265.0 L1432.0,252.0 L1414.0,263.0 L1395.0,263.0 L1384.0,258.0 L1376.0,250.0 L1372.0,238.0 L1459.0,237.0 L1459.0,214.0 L1452.0,196.0 L1439.0,181.0 L1421.0,172.0 L1393.0,170.0 Z M1279.0,171.0 L1257.0,181.0 L1241.0,200.0 L1234.0,227.0 L1238.0,250.0 L1248.0,267.0 L1267.0,281.0 L1285.0,286.0 L1304.0,286.0 L1317.0,283.0 L1334.0,274.0 L1339.0,268.0 L1322.0,252.0 L1303.0,262.0 L1289.0,262.0 L1278.0,258.0 L1267.0,248.0 L1261.0,232.0 L1262.0,219.0 L1267.0,208.0 L1282.0,196.0 L1302.0,194.0 L1322.0,204.0 L1338.0,186.0 L1330.0,179.0 L1314.0,172.0 L1305.0,170.0 Z M1203.0,178.0 L1189.0,171.0 L1165.0,170.0 L1148.0,176.0 L1136.0,187.0 L1135.0,173.0 L1109.0,173.0 L1109.0,283.0 L1135.0,283.0 L1135.0,217.0 L1140.0,205.0 L1149.0,197.0 L1157.0,194.0 L1175.0,195.0 L1181.0,198.0 L1190.0,210.0 L1191.0,283.0 L1218.0,283.0 L1217.0,202.0 L1211.0,187.0 Z M977.0,189.0 L966.0,211.0 L964.0,234.0 L968.0,252.0 L980.0,271.0 L996.0,282.0 L1011.0,286.0 L1026.0,286.0 L1038.0,283.0 L1048.0,277.0 L1056.0,269.0 L1058.0,270.0 L1058.0,283.0 L1084.0,283.0 L1084.0,173.0 L1058.0,173.0 L1058.0,186.0 L1056.0,187.0 L1048.0,178.0 L1037.0,172.0 L1029.0,170.0 L1010.0,170.0 L989.0,178.0 Z M817.0,175.0 L808.0,180.0 L796.0,192.0 L787.0,211.0 L785.0,237.0 L794.0,262.0 L803.0,272.0 L813.0,279.0 L829.0,285.0 L854.0,286.0 L870.0,282.0 L880.0,277.0 L893.0,265.0 L872.0,252.0 L866.0,258.0 L854.0,263.0 L835.0,263.0 L827.0,260.0 L817.0,251.0 L812.0,238.0 L900.0,237.0 L900.0,215.0 L893.0,196.0 L880.0,181.0 L862.0,172.0 L834.0,170.0 Z M691.0,173.0 L678.0,180.0 L666.0,192.0 L657.0,211.0 L655.0,233.0 L657.0,245.0 L663.0,259.0 L678.0,275.0 L690.0,282.0 L700.0,285.0 L724.0,286.0 L740.0,282.0 L750.0,277.0 L763.0,265.0 L743.0,252.0 L736.0,258.0 L725.0,263.0 L706.0,263.0 L695.0,258.0 L687.0,250.0 L683.0,238.0 L770.0,237.0 L770.0,214.0 L763.0,196.0 L750.0,181.0 L732.0,172.0 L703.0,170.0 Z M649.0,171.0 L633.0,170.0 L625.0,172.0 L612.0,180.0 L605.0,190.0 L603.0,189.0 L603.0,173.0 L577.0,173.0 L577.0,283.0 L604.0,283.0 L604.0,220.0 L606.0,213.0 L611.0,205.0 L622.0,197.0 L629.0,195.0 L649.0,197.0 Z M264.0,152.0 L319.0,153.0 L319.0,132.0 L275.0,131.0 Z M559.0,127.0 L463.0,128.0 L463.0,283.0 L490.0,283.0 L490.0,220.0 L492.0,218.0 L552.0,218.0 L552.0,194.0 L490.0,193.0 L490.0,154.0 L559.0,153.0 Z M919.0,117.0 L919.0,283.0 L945.0,283.0 L945.0,117.0 Z M111.0,42.0 L101.0,54.0 L96.0,65.0 L94.0,75.0 L94.0,100.0 L118.0,100.0 L119.0,75.0 L127.0,63.0 L138.0,57.0 L323.0,57.0 L332.0,64.0 L335.0,72.0 L334.0,284.0 L329.0,296.0 L319.0,306.0 L310.0,310.0 L146.0,317.0 L150.0,298.0 L150.0,272.0 L124.0,271.0 L124.0,297.0 L120.0,311.0 L111.0,326.0 L92.0,343.0 L318.0,343.0 L338.0,334.0 L353.0,317.0 L360.0,295.0 L360.0,63.0 L353.0,46.0 L341.0,35.0 L323.0,30.0 L134.0,31.0 L122.0,35.0 Z"/>
    <path fill="#F59E0B" d="M261.0,96.0 L238.0,118.0 L209.0,131.0 L193.0,134.0 L121.0,133.0 L96.0,138.0 L79.0,146.0 L62.0,160.0 L50.0,176.0 L44.0,188.0 L37.0,210.0 L33.0,241.0 L35.0,241.0 L42.0,223.0 L54.0,205.0 L73.0,187.0 L88.0,178.0 L122.0,170.0 L195.0,169.0 L221.0,160.0 L230.0,154.0 L247.0,135.0 L259.0,109.0 Z"/>
    <path fill="#14B8A6" d="M1696.0,195.0 L1710.0,195.0 L1720.0,199.0 L1728.0,206.0 L1735.0,220.0 L1736.0,231.0 L1732.0,244.0 L1725.0,253.0 L1712.0,260.0 L1699.0,261.0 L1688.0,258.0 L1676.0,248.0 L1670.0,234.0 L1670.0,224.0 L1673.0,213.0 L1682.0,202.0 Z M1764.0,172.0 L1801.0,284.0 L1830.0,284.0 L1851.0,216.0 L1854.0,217.0 L1874.0,284.0 L1904.0,283.0 L1941.0,172.0 L1911.0,172.0 L1889.0,245.0 L1885.0,239.0 L1865.0,172.0 L1839.0,173.0 L1817.0,245.0 L1814.0,241.0 L1794.0,173.0 Z M1688.0,170.0 L1666.0,180.0 L1649.0,199.0 L1642.0,220.0 L1643.0,243.0 L1651.0,261.0 L1667.0,277.0 L1688.0,286.0 L1717.0,286.0 L1741.0,275.0 L1756.0,259.0 L1764.0,236.0 L1763.0,214.0 L1758.0,201.0 L1750.0,189.0 L1734.0,176.0 L1713.0,169.0 Z M239.0,168.0 L220.0,188.0 L196.0,200.0 L178.0,203.0 L107.0,203.0 L85.0,209.0 L67.0,219.0 L52.0,235.0 L39.0,260.0 L31.0,290.0 L30.0,325.0 L32.0,324.0 L41.0,297.0 L49.0,282.0 L71.0,256.0 L89.0,245.0 L107.0,240.0 L176.0,239.0 L191.0,236.0 L205.0,230.0 L216.0,222.0 L229.0,205.0 L235.0,190.0 Z M1581.0,127.0 L1485.0,127.0 L1486.0,284.0 L1514.0,283.0 L1515.0,219.0 L1576.0,219.0 L1576.0,193.0 L1514.0,192.0 L1514.0,155.0 L1580.0,154.0 Z M1597.0,116.0 L1597.0,283.0 L1625.0,284.0 L1625.0,116.0 Z"/>
  </g>
</svg>