<svg xmlns="http://www.w3.org/2000/svg" width="1927" height="363" viewBox="0 0 1927 363" role="img" aria-label="FreelanceFlow freelanceflow horizontal mono logo navy">
  <title>FreelanceFlow freelanceflow horizontal mono logo navy</title>
  <path fill="#0F172A" fill-rule="evenodd" clip-rule="evenodd" d="M262.0,229.0 L263.0,251.0 L319.0,251.0 L318.0,228.0 Z M1663.0,194.0 L1680.0,193.0 L1687.0,195.0 L1701.0,207.0 L1706.0,220.0 L1704.0,236.0 L1699.0,244.0 L1687.0,253.0 L1681.0,255.0 L1666.0,255.0 L1655.0,250.0 L1645.0,238.0 L1643.0,232.0 L1644.0,213.0 L1649.0,204.0 Z M993.0,193.0 L1000.0,191.0 L1018.0,192.0 L1026.0,196.0 L1037.0,208.0 L1040.0,219.0 L1038.0,235.0 L1033.0,244.0 L1020.0,254.0 L1013.0,256.0 L993.0,254.0 L986.0,250.0 L975.0,236.0 L973.0,229.0 L975.0,212.0 L980.0,203.0 Z M1353.0,209.0 L1357.0,202.0 L1366.0,194.0 L1377.0,190.0 L1390.0,190.0 L1405.0,197.0 L1412.0,206.0 L1413.0,212.0 L1354.0,213.0 Z M796.0,210.0 L800.0,202.0 L808.0,194.0 L820.0,189.0 L835.0,189.0 L844.0,192.0 L855.0,202.0 L858.0,209.0 L857.0,212.0 L797.0,212.0 Z M667.0,209.0 L671.0,201.0 L681.0,192.0 L693.0,188.0 L703.0,188.0 L718.0,194.0 L727.0,204.0 L729.0,211.0 L668.0,212.0 Z M262.0,182.0 L263.0,202.0 L319.0,202.0 L318.0,180.0 L263.0,180.0 Z M1732.0,171.0 L1769.0,279.0 L1794.0,279.0 L1816.0,212.0 L1819.0,214.0 L1840.0,279.0 L1865.0,278.0 L1902.0,171.0 L1874.0,171.0 L1852.0,238.0 L1849.0,236.0 L1829.0,172.0 L1805.0,171.0 L1783.0,239.0 L1780.0,236.0 L1760.0,171.0 Z M1663.0,168.0 L1640.0,177.0 L1626.0,190.0 L1616.0,211.0 L1615.0,233.0 L1622.0,253.0 L1640.0,272.0 L1658.0,280.0 L1684.0,281.0 L1705.0,273.0 L1723.0,256.0 L1731.0,238.0 L1732.0,215.0 L1725.0,195.0 L1709.0,178.0 L1685.0,168.0 Z M1359.0,171.0 L1342.0,181.0 L1328.0,200.0 L1324.0,213.0 L1323.0,229.0 L1325.0,241.0 L1331.0,255.0 L1344.0,269.0 L1368.0,280.0 L1397.0,281.0 L1422.0,272.0 L1429.0,267.0 L1434.0,260.0 L1415.0,247.0 L1395.0,257.0 L1375.0,257.0 L1361.0,250.0 L1355.0,243.0 L1352.0,234.0 L1441.0,233.0 L1441.0,211.0 L1434.0,193.0 L1423.0,180.0 L1402.0,169.0 L1374.0,167.0 Z M237.0,167.0 L220.0,184.0 L201.0,194.0 L177.0,198.0 L107.0,199.0 L88.0,204.0 L69.0,214.0 L55.0,227.0 L41.0,251.0 L32.0,290.0 L33.0,318.0 L39.0,297.0 L48.0,277.0 L58.0,263.0 L73.0,249.0 L91.0,239.0 L123.0,233.0 L174.0,234.0 L197.0,229.0 L212.0,220.0 L226.0,204.0 L235.0,182.0 Z M1263.0,167.0 L1243.0,174.0 L1226.0,188.0 L1218.0,202.0 L1215.0,212.0 L1215.0,237.0 L1224.0,257.0 L1234.0,268.0 L1243.0,274.0 L1264.0,281.0 L1286.0,281.0 L1310.0,272.0 L1317.0,267.0 L1320.0,262.0 L1303.0,246.0 L1283.0,256.0 L1268.0,256.0 L1258.0,252.0 L1249.0,244.0 L1242.0,228.0 L1243.0,216.0 L1249.0,204.0 L1262.0,194.0 L1283.0,192.0 L1291.0,194.0 L1303.0,201.0 L1318.0,188.0 L1320.0,184.0 L1312.0,177.0 L1294.0,169.0 L1277.0,166.0 Z M1185.0,175.0 L1171.0,168.0 L1151.0,166.0 L1138.0,169.0 L1119.0,182.0 L1117.0,169.0 L1090.0,170.0 L1091.0,278.0 L1118.0,278.0 L1118.0,223.0 L1120.0,208.0 L1129.0,196.0 L1141.0,191.0 L1154.0,191.0 L1163.0,195.0 L1172.0,208.0 L1173.0,278.0 L1200.0,277.0 L1200.0,205.0 L1195.0,187.0 Z M957.0,187.0 L950.0,198.0 L946.0,210.0 L945.0,230.0 L952.0,253.0 L967.0,270.0 L985.0,279.0 L1007.0,281.0 L1020.0,278.0 L1039.0,266.0 L1040.0,278.0 L1068.0,278.0 L1068.0,169.0 L1040.0,169.0 L1040.0,180.0 L1038.0,181.0 L1032.0,175.0 L1019.0,168.0 L993.0,166.0 L971.0,174.0 Z M806.0,168.0 L789.0,177.0 L779.0,187.0 L771.0,200.0 L767.0,215.0 L767.0,233.0 L774.0,253.0 L790.0,270.0 L804.0,277.0 L816.0,280.0 L846.0,279.0 L870.0,269.0 L879.0,259.0 L858.0,246.0 L840.0,256.0 L819.0,256.0 L807.0,251.0 L799.0,243.0 L796.0,233.0 L886.0,232.0 L885.0,209.0 L879.0,193.0 L869.0,180.0 L848.0,168.0 L834.0,165.0 L820.0,165.0 Z M673.0,169.0 L662.0,175.0 L650.0,186.0 L639.0,208.0 L638.0,233.0 L641.0,244.0 L648.0,257.0 L662.0,270.0 L674.0,276.0 L690.0,280.0 L716.0,279.0 L740.0,269.0 L749.0,259.0 L729.0,246.0 L713.0,255.0 L703.0,257.0 L690.0,256.0 L677.0,250.0 L670.0,242.0 L667.0,233.0 L756.0,232.0 L755.0,206.0 L746.0,187.0 L730.0,173.0 L712.0,166.0 L689.0,165.0 Z M633.0,167.0 L625.0,165.0 L611.0,167.0 L600.0,173.0 L590.0,185.0 L588.0,184.0 L588.0,168.0 L560.0,168.0 L560.0,276.0 L588.0,276.0 L588.0,223.0 L592.0,207.0 L601.0,197.0 L608.0,193.0 L633.0,193.0 Z M264.0,152.0 L318.0,152.0 L319.0,129.0 L274.0,129.0 Z M1558.0,126.0 L1464.0,126.0 L1464.0,279.0 L1492.0,279.0 L1493.0,216.0 L1540.0,216.0 L1555.0,214.0 L1554.0,189.0 L1493.0,189.0 L1492.0,153.0 L1558.0,152.0 Z M544.0,117.0 L447.0,117.0 L447.0,274.0 L476.0,274.0 L477.0,211.0 L540.0,210.0 L539.0,184.0 L476.0,183.0 L476.0,145.0 L545.0,144.0 Z M1574.0,115.0 L1573.0,276.0 L1574.0,279.0 L1600.0,279.0 L1600.0,115.0 Z M903.0,112.0 L902.0,276.0 L929.0,277.0 L929.0,113.0 Z M261.0,96.0 L241.0,115.0 L215.0,128.0 L189.0,132.0 L117.0,131.0 L101.0,134.0 L79.0,143.0 L60.0,159.0 L45.0,184.0 L37.0,211.0 L35.0,236.0 L46.0,213.0 L58.0,197.0 L72.0,184.0 L90.0,174.0 L102.0,170.0 L124.0,167.0 L194.0,167.0 L207.0,164.0 L227.0,154.0 L243.0,139.0 L257.0,114.0 Z M112.0,43.0 L103.0,53.0 L97.0,66.0 L97.0,100.0 L120.0,100.0 L122.0,74.0 L131.0,62.0 L139.0,58.0 L321.0,57.0 L331.0,63.0 L334.0,69.0 L334.0,281.0 L330.0,290.0 L321.0,299.0 L309.0,304.0 L267.0,307.0 L148.0,310.0 L150.0,300.0 L150.0,267.0 L124.0,266.0 L123.0,295.0 L120.0,305.0 L108.0,323.0 L88.0,338.0 L313.0,338.0 L324.0,336.0 L338.0,330.0 L352.0,316.0 L360.0,297.0 L360.0,60.0 L355.0,48.0 L343.0,37.0 L330.0,32.0 L135.0,32.0 L125.0,35.0 Z"/>
</svg>