<svg xmlns="http://www.w3.org/2000/svg" width="933" height="933" viewBox="0 0 933 933" role="img" aria-label="FreelanceFlow freelanceflow brand mark color">
  <title>FreelanceFlow freelanceflow brand mark color</title>
  <g fill-rule="evenodd" clip-rule="evenodd">
    <path fill="#0F172A" d="M638.0,589.0 L638.0,643.0 L773.0,643.0 L773.0,588.0 Z M638.0,462.0 L638.0,516.0 L773.0,516.0 L773.0,462.0 Z M639.0,386.0 L773.0,386.0 L773.0,331.0 L663.0,331.0 Z M266.0,100.0 L241.0,124.0 L231.0,139.0 L222.0,158.0 L214.0,190.0 L213.0,254.0 L276.0,254.0 L276.0,205.0 L281.0,183.0 L289.0,170.0 L301.0,158.0 L315.0,150.0 L329.0,146.0 L779.0,146.0 L790.0,150.0 L800.0,159.0 L806.0,170.0 L808.0,180.0 L808.0,697.0 L804.0,721.0 L797.0,736.0 L788.0,748.0 L766.0,765.0 L743.0,773.0 L352.0,791.0 L351.0,788.0 L358.0,770.0 L362.0,747.0 L362.0,682.0 L298.0,682.0 L297.0,744.0 L287.0,779.0 L274.0,803.0 L259.0,822.0 L241.0,839.0 L216.0,857.0 L760.0,857.0 L777.0,854.0 L797.0,847.0 L823.0,831.0 L844.0,810.0 L856.0,792.0 L868.0,763.0 L873.0,735.0 L873.0,163.0 L866.0,135.0 L852.0,112.0 L841.0,101.0 L825.0,90.0 L809.0,83.0 L788.0,79.0 L323.0,79.0 L298.0,84.0 Z"/>
    <path fill="#F59E0B" d="M631.0,238.0 L604.0,271.0 L571.0,299.0 L539.0,317.0 L510.0,328.0 L481.0,335.0 L446.0,339.0 L387.0,339.0 L338.0,336.0 L297.0,336.0 L266.0,339.0 L222.0,350.0 L181.0,370.0 L158.0,387.0 L134.0,411.0 L116.0,435.0 L100.0,464.0 L86.0,500.0 L76.0,539.0 L71.0,575.0 L70.0,612.0 L91.0,561.0 L121.0,515.0 L135.0,499.0 L159.0,477.0 L176.0,465.0 L204.0,450.0 L246.0,436.0 L292.0,429.0 L439.0,428.0 L459.0,426.0 L503.0,415.0 L539.0,397.0 L560.0,381.0 L576.0,365.0 L600.0,331.0 L622.0,280.0 Z"/>
    <path fill="#14B8A6" d="M575.0,422.0 L553.0,452.0 L532.0,472.0 L510.0,487.0 L469.0,504.0 L446.0,509.0 L416.0,512.0 L289.0,510.0 L249.0,514.0 L199.0,528.0 L173.0,541.0 L154.0,554.0 L135.0,571.0 L116.0,594.0 L97.0,625.0 L81.0,663.0 L69.0,708.0 L63.0,750.0 L62.0,805.0 L64.0,817.0 L86.0,753.0 L112.0,704.0 L144.0,663.0 L166.0,643.0 L188.0,628.0 L226.0,612.0 L275.0,603.0 L316.0,601.0 L420.0,602.0 L437.0,600.0 L475.0,589.0 L503.0,573.0 L531.0,546.0 L551.0,515.0 L567.0,472.0 L573.0,444.0 Z"/>
  </g>
</svg>