<svg xmlns="http://www.w3.org/2000/svg" width="933" height="933" viewBox="0 0 933 933" role="img" aria-label="FreelanceFlow freelanceflow brand mark mono navy">
  <title>FreelanceFlow freelanceflow brand mark mono navy</title>
  <path fill="#0F172A" fill-rule="evenodd" clip-rule="evenodd" d="M640.0,590.0 L640.0,646.0 L776.0,645.0 L776.0,590.0 Z M640.0,464.0 L640.0,519.0 L776.0,518.0 L776.0,464.0 Z M577.0,424.0 L555.0,454.0 L534.0,474.0 L512.0,489.0 L471.0,506.0 L448.0,511.0 L418.0,514.0 L291.0,512.0 L251.0,516.0 L201.0,530.0 L175.0,543.0 L156.0,556.0 L137.0,573.0 L118.0,596.0 L99.0,627.0 L83.0,665.0 L71.0,710.0 L65.0,752.0 L64.0,807.0 L66.0,819.0 L88.0,755.0 L114.0,706.0 L146.0,665.0 L168.0,645.0 L190.0,630.0 L228.0,614.0 L277.0,605.0 L318.0,603.0 L422.0,604.0 L439.0,602.0 L477.0,591.0 L505.0,575.0 L533.0,548.0 L553.0,517.0 L569.0,474.0 L575.0,446.0 Z M640.0,389.0 L776.0,388.0 L776.0,333.0 L665.0,332.0 Z M633.0,240.0 L606.0,273.0 L573.0,301.0 L541.0,319.0 L512.0,330.0 L483.0,337.0 L448.0,341.0 L389.0,341.0 L340.0,338.0 L299.0,338.0 L268.0,341.0 L224.0,352.0 L183.0,372.0 L160.0,389.0 L136.0,413.0 L118.0,437.0 L102.0,466.0 L88.0,502.0 L78.0,541.0 L73.0,577.0 L72.0,614.0 L93.0,563.0 L123.0,517.0 L137.0,501.0 L161.0,479.0 L178.0,467.0 L206.0,452.0 L248.0,438.0 L294.0,431.0 L441.0,430.0 L461.0,428.0 L505.0,417.0 L541.0,399.0 L562.0,383.0 L578.0,367.0 L602.0,333.0 L624.0,282.0 Z M270.0,100.0 L255.0,112.0 L240.0,129.0 L231.0,143.0 L222.0,163.0 L215.0,194.0 L216.0,257.0 L278.0,257.0 L279.0,202.0 L284.0,184.0 L294.0,169.0 L304.0,160.0 L329.0,149.0 L778.0,148.0 L794.0,154.0 L803.0,163.0 L809.0,179.0 L809.0,704.0 L803.0,729.0 L791.0,748.0 L772.0,764.0 L746.0,774.0 L714.0,777.0 L354.0,793.0 L353.0,791.0 L361.0,771.0 L364.0,756.0 L365.0,683.0 L300.0,683.0 L299.0,741.0 L294.0,766.0 L288.0,782.0 L278.0,801.0 L263.0,821.0 L241.0,842.0 L215.0,860.0 L756.0,860.0 L788.0,854.0 L822.0,836.0 L845.0,814.0 L858.0,795.0 L870.0,767.0 L876.0,733.0 L876.0,171.0 L869.0,138.0 L857.0,117.0 L847.0,106.0 L828.0,92.0 L815.0,86.0 L795.0,81.0 L338.0,80.0 L305.0,84.0 L284.0,92.0 Z"/>
</svg>